<svg width="105" height="48" viewBox="0 0 105 48" fill="none" xmlns="http://www.w3.org/2000/svg">
<path fill-rule="evenodd" clip-rule="evenodd" d="M30 12C30 8.68629 27.3137 6 24 6H6C2.68629 6 0 8.68629 0 12V30C0 33.3137 2.68629 36 6 36H24C27.3137 36 30 33.3137 30 30V12ZM4.5 13.8141C4.5 12.398 5.64799 11.25 7.06411 11.25H24.4359C25.852 11.25 27 12.398 27 13.8141V13.8141C27 15.2302 25.852 16.3782 24.4359 16.3782H22.7661C20.4278 16.3782 18.5323 18.2738 18.5323 20.6121V30.7258C18.5323 32.396 17.1783 33.75 15.5081 33.75V33.75C13.8378 33.75 12.4839 32.396 12.4839 30.7258V20.3702C12.4839 18.1655 10.6966 16.3782 8.49194 16.3782H7.06411C5.64799 16.3782 4.5 15.2302 4.5 13.8141V13.8141Z" fill="#263238"/>
<path d="M93 14H76C75.4477 14 75 14.4477 75 15V17.3305C75 17.8828 75.4477 18.3305 76 18.3305H80.7419C81.2942 18.3305 81.7419 18.7782 81.7419 19.3305V32C81.7419 32.5523 82.1897 33 82.7419 33H85.8495C86.4017 33 86.8495 32.5523 86.8495 32V19.3305C86.8495 18.7782 87.2972 18.3305 87.8495 18.3305H93C93.5523 18.3305 94 17.8828 94 17.3305V15C94 14.4477 93.5523 14 93 14Z" fill="#263238" stroke="#263238"/>
<path d="M33.832 23.796C33.832 21.9933 34.2047 20.39 34.95 18.986C35.7127 17.5647 36.7873 16.464 38.174 15.684C39.5607 14.8867 41.1553 14.488 42.958 14.488C45.246 14.488 47.17 15.1033 48.73 16.334C50.29 17.5473 51.2953 19.2027 51.746 21.3H46.26C45.9307 20.6067 45.4713 20.078 44.882 19.714C44.31 19.35 43.6427 19.168 42.88 19.168C41.7013 19.168 40.7567 19.5927 40.046 20.442C39.3527 21.274 39.006 22.392 39.006 23.796C39.006 25.2173 39.3527 26.3527 40.046 27.202C40.7567 28.034 41.7013 28.45 42.88 28.45C43.6427 28.45 44.31 28.268 44.882 27.904C45.4713 27.54 45.9307 27.0113 46.26 26.318H51.746C51.2953 28.4153 50.29 30.0793 48.73 31.31C47.17 32.5233 45.246 33.13 42.958 33.13C41.1553 33.13 39.5607 32.74 38.174 31.96C36.7873 31.1627 35.7127 30.062 34.95 28.658C34.2047 27.2367 33.832 25.616 33.832 23.796Z" fill="#263238"/>
<path d="M102.552 14.67V33H97.456V14.67H102.552Z" fill="#263238"/>
<path d="M60.448 14.67V25.304C60.448 26.292 60.6733 27.0547 61.124 27.592C61.592 28.1293 62.294 28.398 63.23 28.398C64.166 28.398 64.868 28.1293 65.336 27.592C65.8213 27.0373 66.064 26.2747 66.064 25.304V14.67H71.16V25.304C71.16 26.9853 70.8047 28.424 70.094 29.62C69.3833 30.7987 68.4127 31.6913 67.182 32.298C65.9687 32.8873 64.6167 33.182 63.126 33.182C61.6353 33.182 60.3007 32.8873 59.122 32.298C57.9607 31.6913 57.042 30.7987 56.366 29.62C55.7073 28.4413 55.378 27.0027 55.378 25.304V14.67H60.448Z" fill="#263238"/>
<path d="M96.6426 7.0862L98.2335 3.5862C98.3958 3.2292 98.7518 3 99.1439 3H102.239C103.108 3 103.563 4.0303 102.979 4.67267L99.7976 8.17267C99.608 8.38115 99.3394 8.5 99.0576 8.5H97.553C96.8257 8.5 96.3417 7.7483 96.6426 7.0862Z" fill="#263238" stroke="#263238"/>
</svg>
